<svg width="264" height="36" viewBox="0 0 264 36" fill="none" xmlns="http://www.w3.org/2000/svg">
<path d="M13.356 4.852C12.852 4.588 12.312 4.348 11.736 4.132C11.16 3.916 10.524 3.808 9.828 3.808C8.82 3.808 8.004 4.132 7.38 4.78C6.78 5.404 6.48 6.328 6.48 7.552V9.964H12.024V12.772H6.48V28H3.24V12.772H0.36V9.964H3.24V7.768C3.24 6.712 3.396 5.764 3.708 4.924C4.02 4.084 4.452 3.364 5.004 2.764C5.556 2.164 6.228 1.708 7.02 1.396C7.812 1.084 8.676 0.927999 9.612 0.927999C10.62 0.927999 11.484 1.048 12.204 1.288C12.948 1.504 13.656 1.78 14.328 2.116L13.356 4.852ZM28.7643 18.64C28.7643 17.704 28.6083 16.816 28.2963 15.976C28.0083 15.136 27.5883 14.404 27.0363 13.78C26.5083 13.156 25.8723 12.664 25.1283 12.304C24.4083 11.92 23.6163 11.728 22.7523 11.728C20.8563 11.728 19.3803 12.352 18.3243 13.6C17.2683 14.848 16.7403 16.504 16.7403 18.568C16.7403 19.504 16.8843 20.404 17.1723 21.268C17.4843 22.108 17.9043 22.852 18.4323 23.5C18.9843 24.124 19.6203 24.628 20.3403 25.012C21.0843 25.372 21.8883 25.552 22.7523 25.552C23.6883 25.552 24.5283 25.384 25.2723 25.048C26.0163 24.712 26.6403 24.244 27.1443 23.644C27.6723 23.02 28.0683 22.288 28.3323 21.448C28.6203 20.608 28.7643 19.672 28.7643 18.64ZM13.4283 18.64C13.4283 17.128 13.6683 15.772 14.1483 14.572C14.6283 13.348 15.2763 12.316 16.0923 11.476C16.9323 10.636 17.9163 9.988 19.0443 9.532C20.1963 9.076 21.4323 8.848 22.7523 8.848C24.0483 8.848 25.2603 9.076 26.3883 9.532C27.5403 9.988 28.5363 10.636 29.3763 11.476C30.2163 12.316 30.8763 13.336 31.3563 14.536C31.8363 15.736 32.0763 17.08 32.0763 18.568C32.0763 20.056 31.8363 21.412 31.3563 22.636C30.9003 23.836 30.2523 24.868 29.4123 25.732C28.5723 26.596 27.5763 27.268 26.4243 27.748C25.2963 28.204 24.0723 28.432 22.7523 28.432C21.4083 28.432 20.1603 28.192 19.0083 27.712C17.8803 27.232 16.8963 26.56 16.0563 25.696C15.2403 24.832 14.5923 23.8 14.1123 22.6C13.6563 21.4 13.4283 20.08 13.4283 18.64ZM48.3359 12.7C47.6399 12.364 46.9919 12.124 46.3919 11.98C45.7919 11.812 45.1199 11.728 44.3759 11.728C43.5359 11.728 42.7439 11.884 41.9999 12.196C41.2799 12.508 40.6559 12.964 40.1279 13.564C39.5999 14.14 39.1799 14.848 38.8679 15.688C38.5799 16.528 38.4359 17.488 38.4359 18.568C38.4359 19.552 38.5679 20.464 38.8319 21.304C39.1199 22.144 39.5159 22.888 40.0199 23.536C40.5239 24.16 41.1239 24.652 41.8199 25.012C42.5159 25.372 43.2959 25.552 44.1599 25.552C45.0719 25.552 45.8519 25.456 46.4999 25.264C47.1479 25.072 47.8439 24.772 48.5879 24.364L49.5959 27.1C48.8279 27.508 47.9879 27.832 47.0759 28.072C46.1639 28.312 45.1199 28.432 43.9439 28.432C42.5999 28.432 41.3879 28.192 40.3079 27.712C39.2279 27.232 38.3039 26.56 37.5359 25.696C36.7679 24.832 36.1679 23.8 35.7359 22.6C35.3279 21.4 35.1239 20.08 35.1239 18.64C35.1239 17.296 35.3279 16.036 35.7359 14.86C36.1679 13.66 36.7799 12.616 37.5719 11.728C38.3639 10.84 39.3119 10.144 40.4159 9.64C41.5439 9.112 42.8039 8.848 44.1959 8.848C45.2759 8.848 46.2119 8.944 47.0039 9.136C47.7959 9.328 48.5639 9.604 49.3079 9.964L48.3359 12.7ZM70.1044 28.18C68.9524 28.18 68.0404 27.952 67.3684 27.496C66.6964 27.04 66.2284 26.38 65.9644 25.516C65.1244 26.38 64.1524 27.088 63.0484 27.64C61.9684 28.168 60.7804 28.432 59.4844 28.432C58.6684 28.432 57.8764 28.3 57.1084 28.036C56.3644 27.796 55.6924 27.4 55.0924 26.848C54.5164 26.296 54.0484 25.576 53.6884 24.688C53.3524 23.8 53.1844 22.72 53.1844 21.448V9.28H56.4244V21.016C56.4244 22.48 56.7244 23.608 57.3244 24.4C57.9484 25.168 58.8724 25.552 60.0964 25.552C61.1044 25.552 62.0644 25.36 62.9764 24.976C63.8884 24.568 64.7044 24.028 65.4244 23.356V9.28H68.6644V23.14C68.6644 23.668 68.7244 24.1 68.8444 24.436C68.9644 24.748 69.1204 25 69.3124 25.192C69.5044 25.36 69.7324 25.48 69.9964 25.552C70.2604 25.624 70.5244 25.66 70.7884 25.66L70.1044 28.18ZM74.8389 23.788C75.4629 24.34 76.2429 24.784 77.1789 25.12C78.1389 25.456 79.1589 25.624 80.2389 25.624C81.5829 25.624 82.5909 25.408 83.2629 24.976C83.9589 24.52 84.3069 23.944 84.3069 23.248C84.3069 22.888 84.2349 22.552 84.0909 22.24C83.9709 21.928 83.7309 21.628 83.3709 21.34C83.0349 21.052 82.5669 20.776 81.9669 20.512C81.3669 20.224 80.5869 19.912 79.6269 19.576C77.8509 18.976 76.5309 18.268 75.6669 17.452C74.8029 16.612 74.3709 15.46 74.3709 13.996C74.3709 13.276 74.5269 12.604 74.8389 11.98C75.1749 11.356 75.6429 10.816 76.2429 10.36C76.8669 9.88 77.6109 9.508 78.4749 9.244C79.3629 8.98 80.3709 8.848 81.4989 8.848C82.7229 8.848 83.7909 8.98 84.7029 9.244C85.6389 9.484 86.4789 9.796 87.2229 10.18L86.3229 12.844C85.6749 12.46 84.9309 12.148 84.0909 11.908C83.2749 11.668 82.3629 11.548 81.3549 11.548C80.1069 11.548 79.1589 11.8 78.5109 12.304C77.8629 12.808 77.5389 13.36 77.5389 13.96C77.5389 14.248 77.5869 14.512 77.6829 14.752C77.8029 14.992 78.0069 15.22 78.2949 15.436C78.5829 15.652 78.9669 15.868 79.4469 16.084C79.9269 16.3 80.5269 16.528 81.2469 16.768C82.4229 17.176 83.4189 17.596 84.2349 18.028C85.0509 18.436 85.7109 18.892 86.2149 19.396C86.7189 19.9 87.0789 20.452 87.2949 21.052C87.5109 21.628 87.6189 22.276 87.6189 22.996C87.6189 23.836 87.4389 24.592 87.0789 25.264C86.7189 25.936 86.2149 26.512 85.5669 26.992C84.9189 27.448 84.1269 27.796 83.1909 28.036C82.2789 28.3 81.2589 28.432 80.1309 28.432C78.6909 28.432 77.4069 28.252 76.2789 27.892C75.1509 27.532 74.2149 27.064 73.4709 26.488L74.8389 23.788ZM90.6474 9.28C92.8554 9.28 94.2354 10.156 94.7874 11.908C94.9554 11.644 95.2074 11.332 95.5434 10.972C95.9034 10.612 96.3354 10.276 96.8394 9.964C97.3434 9.652 97.9194 9.388 98.5674 9.172C99.2154 8.956 99.9354 8.848 100.727 8.848C101.807 8.848 102.839 9.064 103.823 9.496C104.831 9.928 105.707 10.552 106.451 11.368C107.219 12.184 107.831 13.192 108.287 14.392C108.743 15.592 108.971 16.948 108.971 18.46C108.971 19.948 108.743 21.304 108.287 22.528C107.855 23.752 107.255 24.808 106.487 25.696C105.743 26.56 104.879 27.232 103.895 27.712C102.911 28.192 101.879 28.432 100.799 28.432C99.6714 28.432 98.6274 28.216 97.6674 27.784C96.7314 27.328 95.9514 26.812 95.3274 26.236V35.92H92.0874V14.068C92.0874 13.252 91.8834 12.676 91.4754 12.34C91.0914 11.98 90.5874 11.8 89.9634 11.8L90.6474 9.28ZM105.659 18.568C105.659 17.488 105.503 16.528 105.191 15.688C104.903 14.824 104.495 14.092 103.967 13.492C103.463 12.892 102.863 12.436 102.167 12.124C101.495 11.812 100.775 11.656 100.007 11.656C98.9754 11.656 98.0394 11.92 97.1994 12.448C96.3834 12.952 95.7594 13.504 95.3274 14.104V23.32C95.9514 23.968 96.6594 24.508 97.4514 24.94C98.2674 25.348 99.1674 25.552 100.151 25.552C100.967 25.552 101.711 25.384 102.383 25.048C103.055 24.712 103.631 24.244 104.111 23.644C104.615 23.02 104.999 22.288 105.263 21.448C105.527 20.584 105.659 19.624 105.659 18.568ZM127.378 18.64C127.378 17.704 127.222 16.816 126.91 15.976C126.622 15.136 126.202 14.404 125.65 13.78C125.122 13.156 124.486 12.664 123.742 12.304C123.022 11.92 122.23 11.728 121.366 11.728C119.47 11.728 117.994 12.352 116.938 13.6C115.882 14.848 115.354 16.504 115.354 18.568C115.354 19.504 115.498 20.404 115.786 21.268C116.098 22.108 116.518 22.852 117.046 23.5C117.598 24.124 118.234 24.628 118.954 25.012C119.698 25.372 120.502 25.552 121.366 25.552C122.302 25.552 123.142 25.384 123.886 25.048C124.63 24.712 125.254 24.244 125.758 23.644C126.286 23.02 126.682 22.288 126.946 21.448C127.234 20.608 127.378 19.672 127.378 18.64ZM112.042 18.64C112.042 17.128 112.282 15.772 112.762 14.572C113.242 13.348 113.89 12.316 114.706 11.476C115.546 10.636 116.53 9.988 117.658 9.532C118.81 9.076 120.046 8.848 121.366 8.848C122.662 8.848 123.874 9.076 125.002 9.532C126.154 9.988 127.15 10.636 127.99 11.476C128.83 12.316 129.49 13.336 129.97 14.536C130.45 15.736 130.69 17.08 130.69 18.568C130.69 20.056 130.45 21.412 129.97 22.636C129.514 23.836 128.866 24.868 128.026 25.732C127.186 26.596 126.19 27.268 125.038 27.748C123.91 28.204 122.686 28.432 121.366 28.432C120.022 28.432 118.774 28.192 117.622 27.712C116.494 27.232 115.51 26.56 114.67 25.696C113.854 24.832 113.206 23.8 112.726 22.6C112.27 21.4 112.042 20.08 112.042 18.64ZM138.129 12.412C138.801 11.404 139.641 10.564 140.649 9.892C141.681 9.196 142.869 8.848 144.213 8.848C145.701 8.848 146.913 9.208 147.849 9.928C148.785 10.624 149.457 11.584 149.865 12.808C150.609 11.704 151.485 10.768 152.493 10C153.525 9.232 154.797 8.848 156.309 8.848C157.317 8.848 158.193 9.016 158.937 9.352C159.705 9.688 160.341 10.168 160.845 10.792C161.349 11.392 161.721 12.124 161.961 12.988C162.225 13.828 162.357 14.764 162.357 15.796V28H159.117V16.048C159.117 14.752 158.817 13.708 158.217 12.916C157.617 12.1 156.789 11.692 155.733 11.692C155.181 11.692 154.653 11.8 154.149 12.016C153.645 12.232 153.165 12.532 152.709 12.916C152.253 13.276 151.821 13.708 151.413 14.212C151.005 14.692 150.633 15.196 150.297 15.724V28H147.057V16.048C147.057 14.752 146.757 13.708 146.157 12.916C145.557 12.1 144.729 11.692 143.673 11.692C143.145 11.692 142.629 11.8 142.125 12.016C141.621 12.208 141.129 12.484 140.649 12.844C140.193 13.204 139.761 13.624 139.353 14.104C138.945 14.584 138.573 15.088 138.237 15.616V28H134.997V9.28H138.129V12.412ZM181.835 18.64C181.835 17.704 181.679 16.816 181.367 15.976C181.079 15.136 180.659 14.404 180.107 13.78C179.579 13.156 178.943 12.664 178.199 12.304C177.479 11.92 176.687 11.728 175.823 11.728C173.927 11.728 172.451 12.352 171.395 13.6C170.339 14.848 169.811 16.504 169.811 18.568C169.811 19.504 169.955 20.404 170.243 21.268C170.555 22.108 170.975 22.852 171.503 23.5C172.055 24.124 172.691 24.628 173.411 25.012C174.155 25.372 174.959 25.552 175.823 25.552C176.759 25.552 177.599 25.384 178.343 25.048C179.087 24.712 179.711 24.244 180.215 23.644C180.743 23.02 181.139 22.288 181.403 21.448C181.691 20.608 181.835 19.672 181.835 18.64ZM166.499 18.64C166.499 17.128 166.739 15.772 167.219 14.572C167.699 13.348 168.347 12.316 169.163 11.476C170.003 10.636 170.987 9.988 172.115 9.532C173.267 9.076 174.503 8.848 175.823 8.848C177.119 8.848 178.331 9.076 179.459 9.532C180.611 9.988 181.607 10.636 182.447 11.476C183.287 12.316 183.947 13.336 184.427 14.536C184.907 15.736 185.147 17.08 185.147 18.568C185.147 20.056 184.907 21.412 184.427 22.636C183.971 23.836 183.323 24.868 182.483 25.732C181.643 26.596 180.647 27.268 179.495 27.748C178.367 28.204 177.143 28.432 175.823 28.432C174.479 28.432 173.231 28.192 172.079 27.712C170.951 27.232 169.967 26.56 169.127 25.696C168.311 24.832 167.663 23.8 167.183 22.6C166.727 21.4 166.499 20.08 166.499 18.64ZM196.546 28.432C195.394 28.432 194.302 28.204 193.27 27.748C192.262 27.292 191.374 26.644 190.606 25.804C189.862 24.964 189.274 23.956 188.842 22.78C188.41 21.58 188.194 20.236 188.194 18.748C188.194 17.332 188.41 16.024 188.842 14.824C189.298 13.6 189.898 12.556 190.642 11.692C191.41 10.804 192.298 10.108 193.306 9.604C194.314 9.1 195.382 8.848 196.51 8.848C197.758 8.848 198.826 9.1 199.714 9.604C200.626 10.108 201.334 10.624 201.838 11.152V1.36H205.078V23.464C205.078 24.376 205.294 24.976 205.726 25.264C206.182 25.528 206.674 25.66 207.202 25.66L206.518 28.18C204.238 28.18 202.846 27.268 202.342 25.444C201.79 26.212 201.046 26.908 200.11 27.532C199.174 28.132 197.986 28.432 196.546 28.432ZM197.266 25.552C198.154 25.552 198.994 25.348 199.786 24.94C200.602 24.508 201.286 23.956 201.838 23.284V13.996C201.382 13.42 200.746 12.892 199.93 12.412C199.138 11.908 198.238 11.656 197.23 11.656C196.366 11.656 195.574 11.836 194.854 12.196C194.158 12.556 193.558 13.048 193.054 13.672C192.55 14.296 192.166 15.04 191.902 15.904C191.638 16.744 191.506 17.656 191.506 18.64C191.506 19.648 191.65 20.572 191.938 21.412C192.226 22.252 192.622 22.984 193.126 23.608C193.654 24.208 194.266 24.688 194.962 25.048C195.682 25.384 196.45 25.552 197.266 25.552ZM225.077 18.64C225.077 17.704 224.921 16.816 224.609 15.976C224.321 15.136 223.901 14.404 223.349 13.78C222.821 13.156 222.185 12.664 221.441 12.304C220.721 11.92 219.929 11.728 219.065 11.728C217.169 11.728 215.693 12.352 214.637 13.6C213.581 14.848 213.053 16.504 213.053 18.568C213.053 19.504 213.197 20.404 213.485 21.268C213.797 22.108 214.217 22.852 214.745 23.5C215.297 24.124 215.933 24.628 216.653 25.012C217.397 25.372 218.201 25.552 219.065 25.552C220.001 25.552 220.841 25.384 221.585 25.048C222.329 24.712 222.953 24.244 223.457 23.644C223.985 23.02 224.381 22.288 224.645 21.448C224.933 20.608 225.077 19.672 225.077 18.64ZM209.741 18.64C209.741 17.128 209.981 15.772 210.461 14.572C210.941 13.348 211.589 12.316 212.405 11.476C213.245 10.636 214.229 9.988 215.357 9.532C216.509 9.076 217.745 8.848 219.065 8.848C220.361 8.848 221.573 9.076 222.701 9.532C223.853 9.988 224.849 10.636 225.689 11.476C226.529 12.316 227.189 13.336 227.669 14.536C228.149 15.736 228.389 17.08 228.389 18.568C228.389 20.056 228.149 21.412 227.669 22.636C227.213 23.836 226.565 24.868 225.725 25.732C224.885 26.596 223.889 27.268 222.737 27.748C221.609 28.204 220.385 28.432 219.065 28.432C217.721 28.432 216.473 28.192 215.321 27.712C214.193 27.232 213.209 26.56 212.369 25.696C211.553 24.832 210.905 23.8 210.425 22.6C209.969 21.4 209.741 20.08 209.741 18.64ZM242.848 12.412C242.392 12.22 241.852 12.124 241.228 12.124C240.556 12.124 239.896 12.268 239.248 12.556C238.624 12.844 238.06 13.276 237.556 13.852C237.076 14.428 236.68 15.172 236.368 16.084C236.08 16.972 235.936 18.028 235.936 19.252V28H232.696V9.28H235.828V13.348C236.044 12.772 236.332 12.208 236.692 11.656C237.052 11.104 237.472 10.624 237.952 10.216C238.456 9.808 239.032 9.484 239.68 9.244C240.328 8.98 241.048 8.848 241.84 8.848C242.2 8.848 242.548 8.872 242.884 8.92C243.244 8.944 243.556 8.992 243.82 9.064L242.848 12.412ZM259.881 18.64C259.881 17.704 259.725 16.816 259.413 15.976C259.125 15.136 258.705 14.404 258.153 13.78C257.625 13.156 256.989 12.664 256.245 12.304C255.525 11.92 254.733 11.728 253.869 11.728C251.973 11.728 250.497 12.352 249.441 13.6C248.385 14.848 247.857 16.504 247.857 18.568C247.857 19.504 248.001 20.404 248.289 21.268C248.601 22.108 249.021 22.852 249.549 23.5C250.101 24.124 250.737 24.628 251.457 25.012C252.201 25.372 253.005 25.552 253.869 25.552C254.805 25.552 255.645 25.384 256.389 25.048C257.133 24.712 257.757 24.244 258.261 23.644C258.789 23.02 259.185 22.288 259.449 21.448C259.737 20.608 259.881 19.672 259.881 18.64ZM244.545 18.64C244.545 17.128 244.785 15.772 245.265 14.572C245.745 13.348 246.393 12.316 247.209 11.476C248.049 10.636 249.033 9.988 250.161 9.532C251.313 9.076 252.549 8.848 253.869 8.848C255.165 8.848 256.377 9.076 257.505 9.532C258.657 9.988 259.653 10.636 260.493 11.476C261.333 12.316 261.993 13.336 262.473 14.536C262.953 15.736 263.193 17.08 263.193 18.568C263.193 20.056 262.953 21.412 262.473 22.636C262.017 23.836 261.369 24.868 260.529 25.732C259.689 26.596 258.693 27.268 257.541 27.748C256.413 28.204 255.189 28.432 253.869 28.432C252.525 28.432 251.277 28.192 250.125 27.712C248.997 27.232 248.013 26.56 247.173 25.696C246.357 24.832 245.709 23.8 245.229 22.6C244.773 21.4 244.545 20.08 244.545 18.64Z" fill="white"/>
</svg>
