<svg width="24" height="24" viewBox="0 0 24 24" fill="none" xmlns="http://www.w3.org/2000/svg">
<path d="M20.05 11H3.95C3.42533 11 3 11.4785 3 12.0687V12.1813C3 12.7715 3.42533 13.25 3.95 13.25H20.05C20.5747 13.25 21 12.7715 21 12.1813V12.0687C21 11.4785 20.5747 11 20.05 11Z" fill="white"/>
<path d="M20.05 16H3.95C3.42533 16 3 16.4785 3 17.0688V17.1812C3 17.7715 3.42533 18.25 3.95 18.25H20.05C20.5747 18.25 21 17.7715 21 17.1812V17.0688C21 16.4785 20.5747 16 20.05 16Z" fill="white"/>
<path d="M20.05 6H3.95C3.42533 6 3 6.4785 3 7.06875V7.18125C3 7.7715 3.42533 8.25 3.95 8.25H20.05C20.5747 8.25 21 7.7715 21 7.18125V7.06875C21 6.4785 20.5747 6 20.05 6Z" fill="white"/>
</svg>
