<svg width="24" height="24" viewBox="0 0 24 24" fill="none" xmlns="http://www.w3.org/2000/svg">
<path fill-rule="evenodd" clip-rule="evenodd" d="M12.4757 23.9705C6.1272 23.9705 0.980713 18.824 0.980713 12.4755C0.980713 6.12696 6.1272 0.980469 12.4757 0.980469C18.8242 0.980469 23.9707 6.12696 23.9707 12.4755C23.9707 18.824 18.8242 23.9705 12.4757 23.9705ZM9.02702 8.16489V9.88914C9.02702 11.3176 10.571 12.4755 12.4755 12.4755C14.3801 12.4755 15.924 11.3176 15.924 9.88914V8.16489C15.924 6.73648 14.3801 5.57852 12.4755 5.57852C10.571 5.57852 9.02702 6.73648 9.02702 8.16489ZM12.4756 21.6556C9.40557 21.6556 6.53803 19.8195 4.83141 16.7609C9.6841 14.0911 15.2671 14.0911 20.1198 16.7609C18.4131 19.8195 15.5456 21.6556 12.4756 21.6556Z" fill="white"/>
</svg>
