<svg width="25" height="25" viewBox="0 0 25 25" fill="none" xmlns="http://www.w3.org/2000/svg">
<path fill-rule="evenodd" clip-rule="evenodd" d="M12.5 24C6.14873 24 1 18.8513 1 12.5C1 6.14873 6.14873 1 12.5 1C18.8513 1 24 6.14873 24 12.5C24 18.8513 18.8513 24 12.5 24ZM9.04978 8.06451V9.70737C9.04978 11.0684 10.5208 12.1717 12.3355 12.1717C14.1501 12.1717 15.6212 11.0684 15.6212 9.70737V8.06451C15.6212 6.70352 14.1501 5.60022 12.3355 5.60022C10.5208 5.60022 9.04978 6.70352 9.04978 8.06451ZM12.5001 21.8094C9.64094 21.8094 6.97039 20.06 5.38101 17.1458C9.90033 14.602 15.0998 14.602 19.6191 17.1458C18.0297 20.06 15.3592 21.8094 12.5001 21.8094Z" fill="white"/>
</svg>
