<svg width="26" height="26" viewBox="0 0 26 26" fill="none" xmlns="http://www.w3.org/2000/svg">
<path fill-rule="evenodd" clip-rule="evenodd" d="M13.1098 25.9669C6.00888 25.9669 0.252441 20.2105 0.252441 13.1096C0.252441 6.00864 6.00888 0.252197 13.1098 0.252197C20.2107 0.252197 25.9672 6.00864 25.9672 13.1096C25.9672 20.2105 20.2107 25.9669 13.1098 25.9669ZM9.25244 8.28811V10.2167C9.25244 11.8144 10.9794 13.1096 13.1097 13.1096C15.2399 13.1096 16.9669 11.8144 16.9669 10.2167V8.28811C16.9669 6.6904 15.2399 5.3952 13.1097 5.3952C10.9794 5.3952 9.25244 6.6904 9.25244 8.28811ZM13.1096 23.3777C9.67575 23.3777 6.46836 21.324 4.55947 17.9029C9.98729 14.9167 16.232 14.9167 21.6598 17.9029C19.7509 21.324 16.5435 23.3777 13.1096 23.3777Z" fill="white"/>
</svg>
