<svg width="22" height="22" viewBox="0 0 22 22" fill="none" xmlns="http://www.w3.org/2000/svg">
<path fill-rule="evenodd" clip-rule="evenodd" d="M10.7501 20.6401C5.28801 20.6401 0.860107 16.2122 0.860107 10.7501C0.860107 5.28801 5.28801 0.860107 10.7501 0.860107C16.2122 0.860107 20.6401 5.28801 20.6401 10.7501C20.6401 16.2122 16.2122 20.6401 10.7501 20.6401ZM7.78263 6.9355V8.34836C7.78263 9.51881 9.04775 10.4676 10.6083 10.4676C12.1689 10.4676 13.4341 9.51881 13.4341 8.34836V6.9355C13.4341 5.76505 12.1689 4.81622 10.6083 4.81622C9.04775 4.81622 7.78263 5.76505 7.78263 6.9355ZM10.7501 18.7561C8.29127 18.7561 5.9946 17.2516 4.62773 14.7454C8.51435 12.5578 12.9859 12.5578 16.8725 14.7454C15.5056 17.2516 13.209 18.7561 10.7501 18.7561Z" fill="white"/>
</svg>
