<svg width="28" height="28" viewBox="0 0 28 28" fill="none" xmlns="http://www.w3.org/2000/svg">
<path fill-rule="evenodd" clip-rule="evenodd" d="M14 22.5C9.30558 22.5 5.5 18.6944 5.5 14C5.5 9.30558 9.30558 5.5 14 5.5C18.6944 5.5 22.5 9.30558 22.5 14C22.5 18.6944 18.6944 22.5 14 22.5ZM11.45 10.8126V12.0876C11.45 13.1438 12.5917 14.0001 14 14.0001C15.4084 14.0001 16.55 13.1438 16.55 12.0876V10.8126C16.55 9.75635 15.4084 8.90009 14 8.90009C12.5917 8.90009 11.45 9.75635 11.45 10.8126ZM14.0001 20.7885C11.73 20.7885 9.60959 19.4308 8.34763 17.1692C11.936 15.195 16.0643 15.195 19.6526 17.1692C18.3907 19.4308 16.2703 20.7885 14.0001 20.7885Z" fill="white"/>
</svg>
