<svg width="25" height="25" viewBox="0 0 25 25" fill="none" xmlns="http://www.w3.org/2000/svg">
<path fill-rule="evenodd" clip-rule="evenodd" d="M2.1744 13.0005H5.81125C5.81125 13.8656 5.96064 14.6263 6.39315 15.8412C6.64019 16.5351 7.09514 17.2008 7.62968 17.8388C8.19917 18.5186 8.95802 19.082 9.78049 19.5249C11.0042 20.1839 12.306 20.3313 13.0849 20.3313C13.6768 20.3313 14.9398 20.3046 16.7582 19.305C17.5936 18.8457 18.1095 18.3192 18.7585 17.5702C19.0541 17.229 19.6253 16.3726 19.995 15.2547C20.2201 14.574 20.3483 13.773 20.3587 12.9999C20.3629 12.6856 20.3262 12.3684 20.286 12.0534C20.1933 11.3286 20.0028 10.5996 19.6859 9.95823C19.4364 9.45345 19.0962 8.87762 18.813 8.49207C18.3987 7.928 18.038 7.65456 17.8674 7.50241C17.4504 7.13043 17.1403 6.90738 16.74 6.6777C16.4434 6.50751 16.1002 6.32288 15.6126 6.12789C14.176 5.70637 13.6729 5.66971 13.085 5.66971C12.626 5.66971 11.5467 5.76043 10.5937 6.10956C9.65884 6.45206 8.85146 7.04862 8.26613 7.50241L5.88399 4.75336C6.28907 4.30961 7.19555 3.65124 8.21158 3.15891C9.29364 2.6346 10.3319 2.29268 11.1211 2.16926C12.1758 2.00431 12.1602 2.03721 13.085 2.00431C13.8015 1.97883 14.8124 2.06416 15.7217 2.31587C17.0564 2.68534 18.2556 3.21174 19.4495 4.05694C19.9739 4.42821 20.5926 4.92384 21.1224 5.5231C21.7017 6.17829 22.1838 6.94492 22.5408 7.50241C22.953 8.14606 23.3711 9.21283 23.5955 10.0499C23.9899 11.5213 24.0146 12.743 23.9955 13.0005C23.9706 13.3376 24.0077 13.4498 23.9774 13.8435C23.9354 14.3886 23.8075 15.2479 23.5955 15.9695C23.4046 16.6192 23.1382 17.3297 22.7954 18.0127C22.3793 18.8417 21.7771 19.7777 21.1952 20.368C21.0343 20.5311 20.8044 20.832 20.1768 21.3759C19.5681 21.9036 18.6138 22.5605 17.7765 22.9337C17.1699 23.2042 16.5536 23.4567 15.9581 23.6118C14.4142 24.0141 13.1335 23.9967 13.1335 23.9967C13.1335 23.9967 12.0688 24.0507 10.6846 23.7218C10.3351 23.6387 9.41683 23.3975 8.55708 23.007C7.73017 22.6315 6.95979 22.1086 6.6841 21.9074C6.05735 21.45 5.64163 21.0558 5.0657 20.4779C4.63551 20.0463 4.06973 19.2254 3.7928 18.7552C3.33116 17.9713 3.04873 17.3507 2.79266 16.6659C2.57173 16.0751 2.48215 15.5863 2.37442 15.1081C2.37442 15.1081 2.26336 14.5218 2.21076 13.9676C2.16364 13.4711 2.1744 13.0005 2.1744 13.0005V13.0005Z" fill="white"/>
<path fill-rule="evenodd" clip-rule="evenodd" d="M3.81058 2.00293L10.7357 9.48746L2 10.7011L3.81058 2.00293V2.00293Z" fill="white"/>
</svg>
