<svg width="24" height="24" viewBox="0 0 24 24" fill="none" xmlns="http://www.w3.org/2000/svg">
<path fill-rule="evenodd" clip-rule="evenodd" d="M1.43464 12.8188H5.0404C5.0404 13.6874 5.18851 14.4511 5.61732 15.6709C5.86225 16.3677 6.31331 17.036 6.84328 17.6766C7.4079 18.3591 8.16026 18.9248 8.97569 19.3695C10.1889 20.0312 11.4796 20.1792 12.2518 20.1792C12.8387 20.1792 14.0909 20.1524 15.8937 19.1487C16.722 18.6876 17.2335 18.159 17.8769 17.407C18.17 17.0643 18.7363 16.2045 19.1029 15.0821C19.3261 14.3986 19.4531 13.5944 19.4634 12.8181C19.4676 12.5026 19.4313 12.1842 19.3913 11.8679C19.2994 11.1401 19.1106 10.4082 18.7964 9.76425C18.549 9.25743 18.2118 8.67928 17.931 8.29217C17.5202 7.72583 17.1626 7.45129 16.9935 7.29853C16.58 6.92504 16.2725 6.7011 15.8757 6.47049C15.5817 6.29961 15.2413 6.11424 14.7579 5.91846C13.3336 5.49524 12.8348 5.45844 12.2519 5.45844C11.7969 5.45844 10.7268 5.54953 9.78197 5.90006C8.85508 6.24394 8.05461 6.84291 7.47429 7.29853L5.11251 4.53839C5.51413 4.09285 6.41285 3.43182 7.4202 2.93751C8.49301 2.41108 9.52239 2.06778 10.3048 1.94387C11.3505 1.77826 11.3351 1.81128 12.2519 1.77826C12.9623 1.75267 13.9646 1.83835 14.8661 2.09107C16.1894 2.46203 17.3783 2.99055 18.562 3.83916C19.082 4.21193 19.6953 4.70956 20.2206 5.31123C20.795 5.96906 21.273 6.73878 21.6269 7.29853C22.0355 7.94477 22.4501 9.01585 22.6726 9.85625C23.0636 11.3337 23.0881 12.5603 23.0692 12.8188C23.0444 13.1573 23.0812 13.2699 23.0512 13.6652C23.0096 14.2125 22.8828 15.0752 22.6726 15.7997C22.4833 16.4521 22.2192 17.1654 21.8793 17.8512C21.4668 18.6836 20.8697 19.6233 20.2928 20.216C20.1333 20.3798 19.9053 20.6818 19.2831 21.228C18.6796 21.7578 17.7334 22.4173 16.9033 22.7921C16.3019 23.0636 15.6908 23.3171 15.1005 23.4729C13.5698 23.8768 12.3 23.8593 12.3 23.8593C12.3 23.8593 11.2445 23.9136 9.87212 23.5833C9.52558 23.4999 8.61515 23.2578 7.76275 22.8657C6.94291 22.4886 6.17911 21.9636 5.90578 21.7616C5.28439 21.3024 4.87222 20.9066 4.30122 20.3264C3.87471 19.893 3.31376 19.0688 3.0392 18.5967C2.58151 17.8097 2.3015 17.1865 2.04762 16.499C1.82858 15.9058 1.73976 15.415 1.63296 14.9349C1.63296 14.9349 1.52284 14.3462 1.4707 13.7898C1.42398 13.2913 1.43464 12.8188 1.43464 12.8188V12.8188Z" fill="white"/>
<path fill-rule="evenodd" clip-rule="evenodd" d="M3.05706 1.77686L9.92295 9.29157L1.26196 10.5101L3.05706 1.77686V1.77686Z" fill="white"/>
</svg>
