<svg width="28" height="28" viewBox="0 0 28 28" fill="none" xmlns="http://www.w3.org/2000/svg">
<g clip-path="url(#clip0)">
<path fill-rule="evenodd" clip-rule="evenodd" d="M7.33305 14.0005H9.99933C9.99933 14.6428 10.1089 15.2075 10.4259 16.1095C10.6071 16.6247 10.9406 17.1189 11.3325 17.5926C11.75 18.0973 12.3063 18.5156 12.9093 18.8444C13.8064 19.3337 14.7608 19.4431 15.3318 19.4431C15.7658 19.4431 16.6917 19.4233 18.0249 18.6811C18.6373 18.3402 19.0155 17.9493 19.4913 17.3932C19.7081 17.1399 20.1268 16.504 20.3978 15.6741C20.5629 15.1687 20.6569 14.574 20.6645 14C20.6676 13.7667 20.6407 13.5312 20.6112 13.2973C20.5432 12.7592 20.4036 12.2179 20.1712 11.7418C19.9883 11.367 19.7389 10.9395 19.5313 10.6533C19.2275 10.2345 18.9631 10.0315 18.8381 9.9185C18.5323 9.64233 18.305 9.47674 18.0115 9.30621C17.7941 9.17986 17.5424 9.04278 17.185 8.89801C16.1318 8.58506 15.7629 8.55785 15.3319 8.55785C14.9954 8.55785 14.2041 8.6252 13.5055 8.8844C12.8201 9.13869 12.2282 9.5816 11.7991 9.9185L10.0527 7.87752C10.3496 7.54806 11.0142 7.05926 11.7591 6.69375C12.5524 6.30448 13.3136 6.05062 13.8921 5.95899C14.6653 5.83653 14.654 5.86095 15.3319 5.83653C15.8572 5.81761 16.5983 5.88097 17.265 6.06784C18.2435 6.34215 19.1226 6.73296 19.9979 7.36047C20.3824 7.63612 20.836 8.00409 21.2244 8.44899C21.6491 8.93543 22.0025 9.5046 22.2642 9.9185C22.5664 10.3964 22.873 11.1884 23.0375 11.8098C23.3266 12.9023 23.3447 13.8093 23.3308 14.0005C23.3125 14.2508 23.3397 14.3341 23.3174 14.6264C23.2867 15.031 23.1929 15.669 23.0375 16.2047C22.8975 16.6871 22.7022 17.2146 22.4509 17.7217C22.1459 18.3372 21.7043 19.0321 21.2777 19.4703C21.1598 19.5915 20.9912 19.8148 20.5312 20.2187C20.0849 20.6104 19.3852 21.0981 18.7714 21.3752C18.3267 21.576 17.8748 21.7635 17.4383 21.8787C16.3064 22.1773 15.3675 22.1644 15.3675 22.1644C15.3675 22.1644 14.5869 22.2045 13.5722 21.9603C13.3159 21.8987 12.6427 21.7196 12.0124 21.4297C11.4061 21.1508 10.8414 20.7627 10.6392 20.6133C10.1798 20.2737 9.87498 19.981 9.45275 19.552C9.13736 19.2315 8.72257 18.622 8.51955 18.2729C8.18111 17.691 7.97405 17.2302 7.78632 16.7218C7.62435 16.2832 7.55867 15.9203 7.47969 15.5652C7.47969 15.5652 7.39827 15.1299 7.35971 14.7185C7.32517 14.3499 7.33305 14.0005 7.33305 14.0005V14.0005Z" fill="white"/>
<path fill-rule="evenodd" clip-rule="evenodd" d="M8.53271 5.83568L13.6097 11.3924L7.20532 12.2935L8.53271 5.83568V5.83568Z" fill="white"/>
</g>
<defs>
<clipPath id="clip0">
<rect width="18.6667" height="16.3333" fill="white" transform="translate(4.66675 5.83333)"/>
</clipPath>
</defs>
</svg>
