<svg width="22" height="22" viewBox="0 0 22 22" fill="none" xmlns="http://www.w3.org/2000/svg">
<path fill-rule="evenodd" clip-rule="evenodd" d="M1.87005 11.1804H4.99775C4.99775 11.9244 5.12622 12.5786 5.49818 13.6234C5.71063 14.2202 6.10189 14.7927 6.5616 15.3414C7.05136 15.9259 7.70397 16.4105 8.41129 16.7914C9.46367 17.3581 10.5832 17.4849 11.2531 17.4849C11.7621 17.4849 12.8483 17.462 14.4121 16.6023C15.1306 16.2073 15.5742 15.7545 16.1324 15.1104C16.3866 14.8169 16.8778 14.0804 17.1958 13.119C17.3894 12.5336 17.4996 11.8448 17.5085 11.1798C17.5122 10.9096 17.4806 10.6368 17.446 10.3659C17.3663 9.74255 17.2025 9.1156 16.9299 8.56404C16.7154 8.12994 16.4228 7.63472 16.1793 7.30315C15.8229 6.81805 15.5128 6.58289 15.3661 6.45204C15.0074 6.13214 14.7407 5.94032 14.3965 5.74279C14.1414 5.59643 13.8462 5.43765 13.4269 5.26995C12.1915 4.90744 11.7588 4.87592 11.2531 4.87592C10.8584 4.87592 9.93022 4.95394 9.11067 5.25419C8.30667 5.54874 7.61233 6.06179 7.10894 6.45204L5.0603 4.08786C5.40867 3.70623 6.18824 3.14003 7.06203 2.71664C7.9926 2.26573 8.8855 1.97167 9.56419 1.86553C10.4712 1.72368 10.4579 1.75197 11.2531 1.72368C11.8694 1.70176 12.7387 1.77515 13.5207 1.99162C14.6686 2.30937 15.6998 2.76207 16.7266 3.48894C17.1777 3.80823 17.7097 4.23448 18.1654 4.74983C18.6636 5.3133 19.0782 5.9726 19.3852 6.45204C19.7396 7.00558 20.0993 7.92301 20.2922 8.64285C20.6314 9.90832 20.6526 10.959 20.6362 11.1804C20.6148 11.4703 20.6467 11.5668 20.6206 11.9054C20.5845 12.3741 20.4745 13.1131 20.2922 13.7337C20.128 14.2925 19.8989 14.9035 19.6041 15.4909C19.2463 16.2038 18.7283 17.0088 18.2279 17.5164C18.0896 17.6567 17.8919 17.9155 17.3522 18.3833C16.8286 18.8371 16.0079 19.402 15.2879 19.723C14.7662 19.9556 14.2361 20.1727 13.724 20.3061C12.3963 20.6521 11.2949 20.6371 11.2949 20.6371C11.2949 20.6371 10.3793 20.6836 9.18886 20.4007C8.88827 20.3293 8.09855 20.1218 7.35916 19.786C6.64801 19.463 5.98548 19.0134 5.74839 18.8403C5.20939 18.447 4.85187 18.108 4.35657 17.611C3.98661 17.2398 3.50003 16.5338 3.26187 16.1294C2.86487 15.4553 2.62197 14.9215 2.40176 14.3326C2.21176 13.8246 2.13472 13.4042 2.04207 12.9929C2.04207 12.9929 1.94656 12.4887 1.90133 12.0121C1.8608 11.5852 1.87005 11.1804 1.87005 11.1804V11.1804Z" fill="white"/>
<path fill-rule="evenodd" clip-rule="evenodd" d="M3.27707 1.7229L9.23266 8.1596L1.71997 9.20329L3.27707 1.7229V1.7229Z" fill="white"/>
</svg>
