<svg width="24" height="24" viewBox="0 0 24 24" fill="none" xmlns="http://www.w3.org/2000/svg">
<g clip-path="url(#clip0)">
<path fill-rule="evenodd" clip-rule="evenodd" d="M6.28533 12.0004H8.57072C8.57072 12.551 8.66459 13.035 8.93638 13.8081C9.09162 14.2497 9.37751 14.6734 9.71341 15.0794C10.0713 15.512 10.5481 15.8705 11.065 16.1524C11.8339 16.5717 12.652 16.6655 13.1414 16.6655C13.5134 16.6655 14.307 16.6486 15.4497 16.0124C15.9747 15.7202 16.2989 15.3851 16.7067 14.9085C16.8925 14.6913 17.2514 14.1463 17.4837 13.4349C17.6252 13.0017 17.7057 12.492 17.7123 12C17.7149 11.8 17.6919 11.5982 17.6666 11.3977C17.6083 10.9364 17.4886 10.4725 17.2895 10.0644C17.1327 9.74317 16.919 9.37672 16.741 9.13137C16.4806 8.77241 16.254 8.5984 16.1468 8.50158C15.8847 8.26486 15.6898 8.12292 15.4383 7.97675C15.2519 7.86845 15.0362 7.75096 14.7298 7.62687C13.8271 7.35863 13.511 7.3353 13.1415 7.3353C12.8531 7.3353 12.1748 7.39303 11.576 7.61521C10.9885 7.83317 10.4812 8.2128 10.1134 8.50158L8.61643 6.75216C8.87098 6.46977 9.4406 6.0508 10.0791 5.7375C10.759 5.40384 11.4115 5.18625 11.9074 5.10771C12.5701 5.00275 12.5604 5.02368 13.1415 5.00275C13.5918 4.98653 14.227 5.04083 14.7984 5.20101C15.6371 5.43613 16.3907 5.77112 17.1409 6.30898C17.4705 6.54525 17.8593 6.86065 18.1922 7.242C18.5562 7.65894 18.8592 8.14681 19.0835 8.50158C19.3425 8.91118 19.6053 9.59004 19.7463 10.1227C19.9941 11.0591 20.0096 11.8366 19.9977 12.0004C19.982 12.2149 20.0053 12.2864 19.9862 12.5369C19.9599 12.8837 19.8795 13.4306 19.7463 13.8898C19.6263 14.3032 19.4589 14.7554 19.2435 15.19C18.982 15.7176 18.6036 16.3132 18.2379 16.6888C18.1368 16.7927 17.9924 16.9841 17.598 17.3303C17.2155 17.6661 16.6158 18.0841 16.0896 18.3216C15.7084 18.4937 15.3211 18.6544 14.947 18.7532C13.9768 19.0092 13.172 18.9981 13.172 18.9981C13.172 18.9981 12.503 19.0325 11.6331 18.8231C11.4135 18.7703 10.8365 18.6168 10.2962 18.3683C9.77656 18.1293 9.29245 17.7966 9.11921 17.6685C8.72536 17.3774 8.46413 17.1266 8.10221 16.7588C7.83189 16.4841 7.47635 15.9618 7.30233 15.6625C7.01224 15.1637 6.83476 14.7687 6.67385 14.333C6.53502 13.957 6.47872 13.6459 6.41103 13.3416C6.41103 13.3416 6.34123 12.9685 6.30819 12.6159C6.27858 12.2999 6.28533 12.0004 6.28533 12.0004Z" fill="white"/>
<path fill-rule="evenodd" clip-rule="evenodd" d="M7.31354 5.00235L11.6653 9.7653L6.17578 10.5376L7.31354 5.00235Z" fill="white"/>
</g>
<defs>
<clipPath id="clip0">
<rect width="16" height="14" fill="white" transform="translate(4 5)"/>
</clipPath>
</defs>
</svg>
