<svg width="28" height="28" viewBox="0 0 28 28" fill="none" xmlns="http://www.w3.org/2000/svg">
<path fill-rule="evenodd" clip-rule="evenodd" d="M6.998 8.276L8.546 10.85C8.276 11.318 8.06 11.84 7.916 12.38L5 13.1V14.9L7.916 15.62C8.06 16.16 8.276 16.682 8.546 17.15L6.998 19.724L8.276 21.002L10.85 19.454C11.318 19.724 11.84 19.94 12.38 20.084L13.1 23H14.9L15.62 20.084C16.16 19.94 16.682 19.724 17.15 19.454L19.724 21.002L21.002 19.724L19.454 17.15C19.724 16.682 19.94 16.16 20.084 15.62L23 14.9V13.1L20.084 12.38C19.94 11.84 19.724 11.318 19.454 10.85L21.002 8.276L19.724 6.998L17.15 8.546C16.682 8.276 16.16 8.06 15.62 7.916L14.9 5H13.1L12.38 7.916C11.84 8.06 11.318 8.276 10.85 8.546L8.276 6.998L6.998 8.276ZM16.7005 14C16.7005 15.4912 15.4916 16.7 14.0005 16.7C12.5093 16.7 11.3005 15.4912 11.3005 14C11.3005 12.5089 12.5093 11.3 14.0005 11.3C15.4916 11.3 16.7005 12.5089 16.7005 14Z" fill="white"/>
</svg>
