<svg width="28" height="28" viewBox="0 0 28 28" fill="none" xmlns="http://www.w3.org/2000/svg">
<path fill-rule="evenodd" clip-rule="evenodd" d="M6.0126 7.30054L7.77847 10.1033C7.47046 10.6129 7.22407 11.1813 7.0598 11.7693L3.7334 12.5533V14.5133L7.0598 15.2973C7.22407 15.8853 7.47046 16.4537 7.77847 16.9633L6.0126 19.7661L7.47047 21.1577L10.4067 19.4721C10.9406 19.7661 11.5361 20.0013 12.1521 20.1581L12.9734 23.3333H15.0267L15.8481 20.1581C16.4641 20.0013 17.0595 19.7661 17.5934 19.4721L20.5297 21.1577L21.9875 19.7661L20.2217 16.9633C20.5297 16.4537 20.7761 15.8853 20.9403 15.2973L24.2667 14.5133V12.5533L20.9403 11.7693C20.7761 11.1813 20.5297 10.6129 20.2217 10.1033L21.9875 7.30054L20.5297 5.90894L17.5934 7.59454C17.0595 7.30054 16.4641 7.06534 15.8481 6.90854L15.0267 3.73334H12.9734L12.1521 6.90854C11.5361 7.06534 10.9406 7.30054 10.4067 7.59454L7.47047 5.90894L6.0126 7.30054ZM17.0806 13.5334C17.0806 15.1571 15.7017 16.4734 14.0006 16.4734C12.2996 16.4734 10.9206 15.1571 10.9206 13.5334C10.9206 11.9097 12.2996 10.5934 14.0006 10.5934C15.7017 10.5934 17.0806 11.9097 17.0806 13.5334Z" fill="white"/>
</svg>
