<svg width="28" height="28" viewBox="0 0 28 28" fill="none" xmlns="http://www.w3.org/2000/svg">
<path fill-rule="evenodd" clip-rule="evenodd" d="M6.887 8.094L8.349 10.525C8.094 10.967 7.89 11.46 7.754 11.97L5 12.65V14.35L7.754 15.03C7.89 15.54 8.094 16.033 8.349 16.475L6.887 18.906L8.094 20.113L10.525 18.651C10.967 18.906 11.46 19.11 11.97 19.246L12.65 22H14.35L15.03 19.246C15.54 19.11 16.033 18.906 16.475 18.651L18.906 20.113L20.113 18.906L18.651 16.475C18.906 16.033 19.11 15.54 19.246 15.03L22 14.35V12.65L19.246 11.97C19.11 11.46 18.906 10.967 18.651 10.525L20.113 8.094L18.906 6.887L16.475 8.349C16.033 8.094 15.54 7.89 15.03 7.754L14.35 5H12.65L11.97 7.754C11.46 7.89 10.967 8.094 10.525 8.349L8.094 6.887L6.887 8.094ZM16.0505 13.5C16.0505 14.9084 14.9088 16.05 13.5005 16.05C12.0922 16.05 10.9505 14.9084 10.9505 13.5C10.9505 12.0917 12.0922 10.95 13.5005 10.95C14.9088 10.95 16.0505 12.0917 16.0505 13.5Z" fill="white"/>
</svg>
