<svg width="24" height="24" viewBox="0 0 24 24" fill="none" xmlns="http://www.w3.org/2000/svg">
<path fill-rule="evenodd" clip-rule="evenodd" d="M6.554 7.548L7.758 9.55C7.548 9.914 7.38 10.32 7.268 10.74L5 11.3V12.7L7.268 13.26C7.38 13.68 7.548 14.086 7.758 14.45L6.554 16.452L7.548 17.446L9.55 16.242C9.914 16.452 10.32 16.62 10.74 16.732L11.3 19H12.7L13.26 16.732C13.68 16.62 14.086 16.452 14.45 16.242L16.452 17.446L17.446 16.452L16.242 14.45C16.452 14.086 16.62 13.68 16.732 13.26L19 12.7V11.3L16.732 10.74C16.62 10.32 16.452 9.914 16.242 9.55L17.446 7.548L16.452 6.554L14.45 7.758C14.086 7.548 13.68 7.38 13.26 7.268L12.7 5H11.3L10.74 7.268C10.32 7.38 9.914 7.548 9.55 7.758L7.548 6.554L6.554 7.548ZM14.1004 12C14.1004 13.1598 13.1602 14.1 12.0004 14.1C10.8406 14.1 9.90039 13.1598 9.90039 12C9.90039 10.8402 10.8406 9.90002 12.0004 9.90002C13.1602 9.90002 14.1004 10.8402 14.1004 12Z" fill="white"/>
</svg>
