<svg width="28" height="28" viewBox="0 0 28 28" fill="none" xmlns="http://www.w3.org/2000/svg">
<path d="M9 16L11 14L13 16L17 12L19 14L13 20L9 16Z" fill="white"/>
<path fill-rule="evenodd" clip-rule="evenodd" d="M11.03 6.5768C11.2407 5.09837 12.5066 4 14 4C15.4934 4 16.7593 5.09837 16.97 6.5768L19 6.9768V7.9768H20C21.1046 7.9768 22 8.87223 22 9.9768V21.9768C22 23.0814 21.1046 23.9768 20 23.9768H8C6.89543 23.9768 6 23.0814 6 21.9768V9.9768C6 8.8768 6.9 7.9768 8 7.9768H9V6.9768L11.03 6.5768ZM9 9.9768H8V21.9768H20V9.9768H19V10.9768H9V9.9768ZM15 6.9768C15 7.52908 14.5523 7.9768 14 7.9768C13.4477 7.9768 13 7.52908 13 6.9768C13 6.42451 13.4477 5.9768 14 5.9768C14.5523 5.9768 15 6.42451 15 6.9768Z" fill="white"/>
</svg>
