<svg width="22" height="22" viewBox="0 0 22 22" fill="none" xmlns="http://www.w3.org/2000/svg">
<path fill-rule="evenodd" clip-rule="evenodd" d="M8.03 3.5768C8.24066 2.09837 9.50664 1 11 1C12.4934 1 13.7593 2.09837 13.97 3.5768L16 3.9768V4.9768H17C18.1046 4.9768 19 5.87223 19 6.9768V18.9768C19 20.0814 18.1046 20.9768 17 20.9768H5C3.89543 20.9768 3 20.0814 3 18.9768V6.9768C3 5.8768 3.9 4.9768 5 4.9768H6V3.9768L8.03 3.5768ZM6 6.9768H5V18.9768H17V6.9768H16V7.9768H6V6.9768ZM12 3.9768C12 4.52908 11.5523 4.9768 11 4.9768C10.4477 4.9768 10 4.52908 10 3.9768C10 3.42451 10.4477 2.9768 11 2.9768C11.5523 2.9768 12 3.42451 12 3.9768Z" fill="white"/>
<path d="M9.39623 14.3333L7.32075 12.2381L6 13.5714L9.39623 17L16 10.3333L14.6792 9L9.39623 14.3333Z" fill="white"/>
</svg>
