<svg width="28" height="28" viewBox="0 0 28 28" fill="none" xmlns="http://www.w3.org/2000/svg">
<path d="M9.7793 16.1176L11.6322 14.2647L13.4852 16.1176L17.1911 12.4118L19.044 14.2647L13.4852 19.8235L9.7793 16.1176Z" fill="white"/>
<path fill-rule="evenodd" clip-rule="evenodd" d="M11.6601 7.32181C11.8553 5.98968 13.0282 5 14.4118 5C15.7953 5 16.9682 5.98968 17.1634 7.32181L19.0441 7.68223V8.58328H19.9706C20.9939 8.58328 21.8235 9.3901 21.8235 10.3854V21.1979C21.8235 22.1932 20.9939 23 19.9706 23H8.85294C7.82959 23 7 22.1932 7 21.1979V10.3854C7 9.39422 7.83382 8.58328 8.85294 8.58328H9.77941V7.68223L11.6601 7.32181ZM9.77941 10.5373H8.85294V21.1256H19.9706V10.5373H19.0441V11.4197H9.77941V10.5373ZM15.3382 7.75791C15.3382 8.26958 14.9234 8.68438 14.4118 8.68438C13.9001 8.68438 13.4853 8.26958 13.4853 7.75791C13.4853 7.24623 13.9001 6.83144 14.4118 6.83144C14.9234 6.83144 15.3382 7.24623 15.3382 7.75791Z" fill="white"/>
</svg>
