<svg width="28" height="28" viewBox="0 0 28 28" fill="none" xmlns="http://www.w3.org/2000/svg">
<path d="M9.625 15.5L11.375 13.75L13.125 15.5L16.625 12L18.375 13.75L13.125 19L9.625 15.5Z" fill="white"/>
<path fill-rule="evenodd" clip-rule="evenodd" d="M11.4013 7.2547C11.5856 5.96108 12.6933 5 14 5C15.3067 5 16.4144 5.96108 16.5988 7.2547L18.375 7.6047V8.4797H19.25C20.2165 8.4797 21 9.2632 21 10.2297V20.7297C21 21.6962 20.2165 22.4797 19.25 22.4797H8.75C7.7835 22.4797 7 21.6962 7 20.7297V10.2297C7 9.2672 7.7875 8.4797 8.75 8.4797H9.625V7.6047L11.4013 7.2547ZM9.625 10.2297H8.75V20.7297H19.25V10.2297H18.375V11.1047H9.625V10.2297ZM14.875 7.60469C14.875 8.08794 14.4832 8.47969 14 8.47969C13.5168 8.47969 13.125 8.08794 13.125 7.60469C13.125 7.12144 13.5168 6.72969 14 6.72969C14.4832 6.72969 14.875 7.12144 14.875 7.60469Z" fill="white"/>
</svg>
